<svg width="516" height="99" viewBox="0 0 516 99" fill="none" xmlns="http://www.w3.org/2000/svg">
<path d="M87.728 38.248C90.56 38.248 93.032 38.824 95.144 39.976C97.304 41.128 98.96 42.64 100.112 44.512V38.824H112.424V78.928C112.424 82.624 111.68 85.96 110.192 88.936C108.752 91.96 106.52 94.36 103.496 96.136C100.52 97.912 96.8 98.8 92.336 98.8C86.384 98.8 81.56 97.384 77.864 94.552C74.168 91.768 72.056 87.976 71.528 83.176H83.696C84.08 84.712 84.992 85.912 86.432 86.776C87.872 87.688 89.648 88.144 91.76 88.144C94.304 88.144 96.32 87.4 97.808 85.912C99.344 84.472 100.112 82.144 100.112 78.928V73.24C98.912 75.112 97.256 76.648 95.144 77.848C93.032 79 90.56 79.576 87.728 79.576C84.416 79.576 81.416 78.736 78.728 77.056C76.04 75.328 73.904 72.904 72.32 69.784C70.784 66.616 70.016 62.968 70.016 58.84C70.016 54.712 70.784 51.088 72.32 47.968C73.904 44.848 76.04 42.448 78.728 40.768C81.416 39.088 84.416 38.248 87.728 38.248ZM100.112 58.912C100.112 55.84 99.248 53.416 97.52 51.64C95.84 49.864 93.776 48.976 91.328 48.976C88.88 48.976 86.792 49.864 85.064 51.64C83.384 53.368 82.544 55.768 82.544 58.84C82.544 61.912 83.384 64.36 85.064 66.184C86.792 67.96 88.88 68.848 91.328 68.848C93.776 68.848 95.84 67.96 97.52 66.184C99.248 64.408 100.112 61.984 100.112 58.912ZM133.643 45.52C135.083 43.312 136.883 41.584 139.043 40.336C141.203 39.04 143.603 38.392 146.243 38.392V51.424H142.859C139.787 51.424 137.483 52.096 135.947 53.44C134.411 54.736 133.643 57.04 133.643 60.352V79H121.331V38.824H133.643V45.52ZM190 58.264C190 59.416 189.928 60.616 189.784 61.864H161.92C162.112 64.36 162.904 66.28 164.296 67.624C165.736 68.92 167.488 69.568 169.552 69.568C172.624 69.568 174.76 68.272 175.96 65.68H189.064C188.392 68.32 187.168 70.696 185.392 72.808C183.664 74.92 181.48 76.576 178.84 77.776C176.2 78.976 173.248 79.576 169.984 79.576C166.048 79.576 162.544 78.736 159.472 77.056C156.4 75.376 154 72.976 152.272 69.856C150.544 66.736 149.68 63.088 149.68 58.912C149.68 54.736 150.52 51.088 152.2 47.968C153.928 44.848 156.328 42.448 159.4 40.768C162.472 39.088 166 38.248 169.984 38.248C173.872 38.248 177.328 39.064 180.352 40.696C183.376 42.328 185.728 44.656 187.408 47.68C189.136 50.704 190 54.232 190 58.264ZM177.4 55.024C177.4 52.912 176.68 51.232 175.24 49.984C173.8 48.736 172 48.112 169.84 48.112C167.776 48.112 166.024 48.712 164.584 49.912C163.192 51.112 162.328 52.816 161.992 55.024H177.4ZM234.367 58.264C234.367 59.416 234.295 60.616 234.151 61.864H206.287C206.479 64.36 207.271 66.28 208.663 67.624C210.103 68.92 211.855 69.568 213.919 69.568C216.991 69.568 219.127 68.272 220.327 65.68H233.431C232.759 68.32 231.535 70.696 229.759 72.808C228.031 74.92 225.847 76.576 223.207 77.776C220.567 78.976 217.615 79.576 214.351 79.576C210.415 79.576 206.911 78.736 203.839 77.056C200.767 75.376 198.367 72.976 196.639 69.856C194.911 66.736 194.047 63.088 194.047 58.912C194.047 54.736 194.887 51.088 196.567 47.968C198.295 44.848 200.695 42.448 203.767 40.768C206.839 39.088 210.367 38.248 214.351 38.248C218.239 38.248 221.695 39.064 224.719 40.696C227.743 42.328 230.095 44.656 231.775 47.68C233.503 50.704 234.367 54.232 234.367 58.264ZM221.767 55.024C221.767 52.912 221.047 51.232 219.607 49.984C218.167 48.736 216.367 48.112 214.207 48.112C212.143 48.112 210.391 48.712 208.951 49.912C207.559 51.112 206.695 52.816 206.359 55.024H221.767ZM265.342 38.392C270.046 38.392 273.79 39.928 276.574 43C279.406 46.024 280.822 50.2 280.822 55.528V79H268.582V57.184C268.582 54.496 267.886 52.408 266.494 50.92C265.102 49.432 263.23 48.688 260.878 48.688C258.526 48.688 256.654 49.432 255.262 50.92C253.87 52.408 253.174 54.496 253.174 57.184V79H240.862V38.824H253.174V44.152C254.422 42.376 256.102 40.984 258.214 39.976C260.326 38.92 262.702 38.392 265.342 38.392Z" fill="#188316"/>
<path d="M314.074 38.392C318.682 38.392 322.378 39.928 325.162 43C327.946 46.024 329.338 50.2 329.338 55.528V79H317.098V57.184C317.098 54.496 316.402 52.408 315.01 50.92C313.618 49.432 311.746 48.688 309.394 48.688C307.042 48.688 305.17 49.432 303.778 50.92C302.386 52.408 301.69 54.496 301.69 57.184V79H289.378V25.72H301.69V44.224C302.938 42.448 304.642 41.032 306.802 39.976C308.962 38.92 311.386 38.392 314.074 38.392ZM335.446 58.84C335.446 54.712 336.214 51.088 337.75 47.968C339.334 44.848 341.47 42.448 344.158 40.768C346.846 39.088 349.846 38.248 353.158 38.248C355.99 38.248 358.462 38.824 360.574 39.976C362.734 41.128 364.39 42.64 365.542 44.512V38.824H377.854V79H365.542V73.312C364.342 75.184 362.662 76.696 360.502 77.848C358.39 79 355.918 79.576 353.086 79.576C349.822 79.576 346.846 78.736 344.158 77.056C341.47 75.328 339.334 72.904 337.75 69.784C336.214 66.616 335.446 62.968 335.446 58.84ZM365.542 58.912C365.542 55.84 364.678 53.416 362.95 51.64C361.27 49.864 359.206 48.976 356.758 48.976C354.31 48.976 352.222 49.864 350.494 51.64C348.814 53.368 347.974 55.768 347.974 58.84C347.974 61.912 348.814 64.36 350.494 66.184C352.222 67.96 354.31 68.848 356.758 68.848C359.206 68.848 361.27 67.96 362.95 66.184C364.678 64.408 365.542 61.984 365.542 58.912ZM426.433 38.824V79H414.121V73.528C412.873 75.304 411.169 76.744 409.009 77.848C406.897 78.904 404.545 79.432 401.953 79.432C398.881 79.432 396.169 78.76 393.817 77.416C391.465 76.024 389.641 74.032 388.345 71.44C387.049 68.848 386.401 65.8 386.401 62.296V38.824H398.641V60.64C398.641 63.328 399.337 65.416 400.729 66.904C402.121 68.392 403.993 69.136 406.345 69.136C408.745 69.136 410.641 68.392 412.033 66.904C413.425 65.416 414.121 63.328 414.121 60.64V38.824H426.433ZM451.621 79.576C448.117 79.576 444.997 78.976 442.261 77.776C439.525 76.576 437.365 74.944 435.781 72.88C434.197 70.768 433.309 68.416 433.117 65.824H445.285C445.429 67.216 446.077 68.344 447.229 69.208C448.381 70.072 449.797 70.504 451.477 70.504C453.013 70.504 454.189 70.216 455.005 69.64C455.869 69.016 456.301 68.224 456.301 67.264C456.301 66.112 455.701 65.272 454.501 64.744C453.301 64.168 451.357 63.544 448.669 62.872C445.789 62.2 443.389 61.504 441.469 60.784C439.549 60.016 437.893 58.84 436.501 57.256C435.109 55.624 434.413 53.44 434.413 50.704C434.413 48.4 435.037 46.312 436.285 44.44C437.581 42.52 439.453 41.008 441.901 39.904C444.397 38.8 447.349 38.248 450.757 38.248C455.797 38.248 459.757 39.496 462.637 41.992C465.565 44.488 467.245 47.8 467.677 51.928H456.301C456.109 50.536 455.485 49.432 454.429 48.616C453.421 47.8 452.077 47.392 450.397 47.392C448.957 47.392 447.853 47.68 447.085 48.256C446.317 48.784 445.933 49.528 445.933 50.488C445.933 51.64 446.533 52.504 447.733 53.08C448.981 53.656 450.901 54.232 453.493 54.808C456.469 55.576 458.893 56.344 460.765 57.112C462.637 57.832 464.269 59.032 465.661 60.712C467.101 62.344 467.845 64.552 467.893 67.336C467.893 69.688 467.221 71.8 465.877 73.672C464.581 75.496 462.685 76.936 460.189 77.992C457.741 79.048 454.885 79.576 451.621 79.576Z" fill="white"/>
<path d="M45.5164 22.1014C45.0497 20.6855 43.7163 20.6289 43.1579 21.9654C40.5743 28.0705 35.9489 31.8762 30.665 31.8762H23.9977C15.1635 31.8762 7.9962 41.6171 7.9962 53.6233C7.9962 54.4162 8.06287 55.175 8.12121 55.9453C13.4384 50.769 21.1141 46.3743 31.9985 46.3743C32.7319 46.3743 33.3319 47.1898 33.3319 48.1865C33.3319 49.1833 32.7319 49.9988 31.9985 49.9988C11.0465 49.9988 2.16231 67.4531 0.195459 74.0112C-0.354593 75.8574 0.295469 77.9642 1.65393 78.7231C3.02073 79.4933 4.57087 78.5985 5.1376 76.7636C5.26261 76.3558 6.87943 71.3381 11.1298 66.5017C13.8301 71.474 18.9639 76.2199 25.7062 75.2458C38.7908 73.9546 48 58.0067 48 38.4796C48 32.7937 47.0999 26.9038 45.5164 22.1014Z" fill="white"/>
</svg>
