<svg width="98" height="50" viewBox="0 0 98 50" fill="none" xmlns="http://www.w3.org/2000/svg">
<path d="M31.2925 5.75956C30.9717 4.78313 30.0549 4.74407 29.671 5.66582C27.8948 9.87619 24.7148 12.5008 21.0822 12.5008H16.4984C10.4249 12.5008 5.49739 19.2187 5.49739 27.4988C5.49739 28.0456 5.54323 28.569 5.58333 29.1002C9.23889 25.5303 14.516 22.4995 21.999 22.4995C22.5032 22.4995 22.9157 23.0619 22.9157 23.7493C22.9157 24.4367 22.5032 24.9992 21.999 24.9992C7.59446 24.9992 1.48659 37.0366 0.134378 41.5594C-0.243783 42.8327 0.203135 44.2856 1.13708 44.809C2.07675 45.3402 3.14248 44.7231 3.5321 43.4576C3.61804 43.1764 4.72961 39.7159 7.65176 36.3805C9.50819 39.8097 13.0377 43.0827 17.673 42.4109C26.6687 41.5204 33 30.5219 33 17.0549C33 13.1336 32.3812 9.07161 31.2925 5.75956Z" fill="white"/>
<path d="M55.864 19.624C57.28 19.624 58.516 19.912 59.572 20.488C60.652 21.064 61.48 21.82 62.056 22.756V19.912H68.212V39.964C68.212 41.812 67.84 43.48 67.096 44.968C66.376 46.48 65.26 47.68 63.748 48.568C62.26 49.456 60.4 49.9 58.168 49.9C55.192 49.9 52.78 49.192 50.932 47.776C49.084 46.384 48.028 44.488 47.764 42.088H53.848C54.04 42.856 54.496 43.456 55.216 43.888C55.936 44.344 56.824 44.572 57.88 44.572C59.152 44.572 60.16 44.2 60.904 43.456C61.672 42.736 62.056 41.572 62.056 39.964V37.12C61.456 38.056 60.628 38.824 59.572 39.424C58.516 40 57.28 40.288 55.864 40.288C54.208 40.288 52.708 39.868 51.364 39.028C50.02 38.164 48.952 36.952 48.16 35.392C47.392 33.808 47.008 31.984 47.008 29.92C47.008 27.856 47.392 26.044 48.16 24.484C48.952 22.924 50.02 21.724 51.364 20.884C52.708 20.044 54.208 19.624 55.864 19.624ZM62.056 29.956C62.056 28.42 61.624 27.208 60.76 26.32C59.92 25.432 58.888 24.988 57.664 24.988C56.44 24.988 55.396 25.432 54.532 26.32C53.692 27.184 53.272 28.384 53.272 29.92C53.272 31.456 53.692 32.68 54.532 33.592C55.396 34.48 56.44 34.924 57.664 34.924C58.888 34.924 59.92 34.48 60.76 33.592C61.624 32.704 62.056 31.492 62.056 29.956Z" fill="#188316"/>
<path d="M85.0136 19.696C87.3176 19.696 89.1656 20.464 90.5576 22C91.9496 23.512 92.6456 25.6 92.6456 28.264V40H86.5256V29.092C86.5256 27.748 86.1776 26.704 85.4816 25.96C84.7856 25.216 83.8496 24.844 82.6736 24.844C81.4976 24.844 80.5616 25.216 79.8656 25.96C79.1696 26.704 78.8216 27.748 78.8216 29.092V40H72.6656V13.36H78.8216V22.612C79.4456 21.724 80.2976 21.016 81.3776 20.488C82.4576 19.96 83.6696 19.696 85.0136 19.696Z" fill="white"/>
</svg>
